<?xml version="1.0" standalone="no"?>
<!DOCTYPE svg PUBLIC "-//W3C//DTD SVG 20010904//EN"
 "http://www.w3.org/TR/2001/REC-SVG-20010904/DTD/svg10.dtd">
<svg version="1.0" xmlns="http://www.w3.org/2000/svg"
 width="30.000000pt" height="30.000000pt" viewBox="0 0 1280.000000 1280.000000"
 preserveAspectRatio="xMidYMid meet">

<g transform="translate(0.000000,1280.000000) scale(0.100000,-0.100000)"
fill="beige" stroke="none">
<path d="M0 9443 c0 -626 0 -633 20 -633 11 0 21 0 23 1 10 3 106 -54 102 -62
-4 -5 -1 -9 5 -9 6 0 14 -8 17 -17 8 -21 53 -78 53 -67 0 19 61 -53 71 -85 13
-40 271 -333 342 -389 123 -97 212 -205 201 -246 -5 -21 6 -37 68 -103 40 -43
82 -80 93 -83 41 -10 115 -72 151 -125 20 -30 39 -53 44 -50 18 11 101 -65
256 -236 18 -19 44 -43 59 -54 15 -12 28 -30 29 -40 3 -31 355 -395 382 -395
15 0 45 -35 42 -49 -2 -7 15 -24 37 -39 22 -15 54 -49 70 -74 25 -39 35 -47
62 -47 22 -1 38 -9 52 -27 11 -14 38 -39 61 -55 23 -17 40 -37 40 -48 0 -11 8
-22 19 -26 10 -3 67 -57 126 -120 69 -75 114 -115 127 -115 12 0 42 -19 68
-42 26 -24 73 -61 105 -83 76 -53 96 -71 142 -132 21 -28 61 -71 88 -95 182
-158 410 -371 467 -435 36 -42 79 -82 95 -89 22 -9 234 -213 376 -360 10 -11
75 -73 145 -139 211 -201 503 -496 577 -583 39 -46 86 -93 105 -105 47 -29
151 -111 214 -168 28 -26 65 -53 81 -62 17 -9 75 -59 130 -113 55 -53 124
-114 153 -136 28 -21 103 -87 165 -146 62 -59 147 -135 190 -170 43 -35 81
-71 85 -81 4 -10 57 -61 117 -113 61 -53 119 -105 129 -117 11 -11 23 -21 29
-21 20 0 230 -156 256 -190 14 -19 53 -62 86 -95 69 -70 128 -142 138 -167 3
-10 13 -18 22 -18 8 0 35 -18 58 -39 23 -22 56 -43 71 -47 16 -4 61 -37 100
-74 39 -37 107 -91 151 -121 89 -59 255 -207 255 -227 0 -7 12 -18 28 -24 25
-11 137 -84 327 -214 44 -30 117 -89 163 -130 54 -49 88 -74 98 -70 8 3 27 -2
42 -13 15 -10 38 -26 52 -35 14 -9 50 -33 80 -54 30 -20 71 -44 91 -53 20 -9
65 -45 100 -79 35 -34 78 -68 94 -76 17 -8 48 -27 70 -44 22 -16 56 -40 75
-53 19 -14 58 -45 86 -71 29 -25 57 -46 63 -46 7 0 33 -23 59 -51 26 -29 63
-62 82 -74 19 -13 78 -60 129 -105 52 -45 111 -88 130 -96 20 -8 45 -23 56
-33 11 -10 42 -30 69 -46 28 -15 69 -45 91 -67 23 -21 51 -38 61 -38 11 0 47
-25 81 -55 33 -30 65 -55 69 -55 10 0 102 -59 141 -89 150 -122 213 -174 271
-226 38 -33 90 -76 117 -95 26 -19 61 -47 77 -62 l30 -28 625 0 c595 0 625 1
611 18 -9 9 -14 22 -11 28 2 6 -3 17 -12 24 -8 7 -15 21 -15 31 0 10 -5 21
-11 24 -7 5 -8 25 -4 55 l7 48 -37 -12 c-19 -7 -40 -17 -46 -23 -21 -21 -196
81 -322 187 -23 20 -53 44 -67 53 -14 9 -65 48 -115 87 -49 38 -116 89 -148
113 -33 23 -82 61 -110 85 -29 23 -76 58 -106 78 -30 20 -78 60 -106 88 -154
150 -253 236 -272 236 -5 0 -18 9 -27 19 -16 18 -16 22 -2 50 27 52 17 93 -14
56 -18 -22 -35 -19 -72 13 -28 24 -97 74 -212 152 -13 8 -45 34 -73 58 -28 23
-53 42 -56 42 -3 0 -26 14 -50 30 -25 17 -49 30 -54 30 -6 0 -18 10 -29 22
-26 29 -105 79 -115 72 -5 -3 -21 2 -37 10 -19 10 -32 12 -39 5 -12 -12 -63
26 -63 47 0 8 -6 14 -13 14 -7 0 -38 22 -68 48 -29 27 -76 61 -104 77 -27 16
-61 38 -75 51 -14 12 -52 34 -85 49 -33 16 -81 44 -107 64 -62 47 -100 74
-173 121 -34 21 -82 57 -107 79 -25 22 -108 82 -184 133 -153 103 -302 216
-379 288 -27 26 -61 53 -75 60 -34 18 -84 57 -135 107 -24 23 -56 49 -72 58
-36 20 -87 58 -154 115 -30 25 -67 52 -82 60 -15 8 -58 49 -95 92 -36 43 -79
82 -94 87 -15 5 -53 34 -85 65 -32 30 -76 67 -98 81 -22 15 -77 62 -121 104
-45 42 -96 86 -113 99 -17 13 -29 27 -26 32 2 4 -13 28 -35 53 -22 25 -40 49
-39 54 2 8 -12 41 -36 83 -20 34 -19 54 5 75 18 17 25 17 56 6 26 -9 38 -10
49 -1 10 8 32 5 92 -15 107 -36 117 -37 149 -20 21 11 62 15 151 15 131 0 163
7 205 47 l26 25 55 -25 c63 -30 189 -67 230 -67 16 0 37 -5 48 -11 11 -6 29
-12 41 -14 11 -3 40 -14 65 -26 43 -21 46 -21 110 -5 36 9 69 14 73 11 4 -2
25 4 46 14 22 10 65 26 96 35 49 14 59 21 63 44 4 15 10 35 16 44 15 28 11 43
-20 73 -25 25 -28 34 -23 74 2 25 8 50 13 56 22 24 7 76 -64 210 -17 33 -65
128 -107 210 -42 83 -90 177 -107 210 -16 33 -35 71 -41 85 -7 14 -16 32 -21
40 -19 31 -81 161 -81 170 0 5 -18 48 -41 95 -22 48 -42 97 -44 109 -3 11 -15
46 -29 76 -13 30 -32 73 -41 95 -10 22 -23 53 -31 69 -8 16 -14 33 -14 39 0 9
-24 67 -41 100 -6 11 -6 24 0 36 6 10 8 20 6 23 -7 7 21 100 50 160 17 38 25
68 21 88 -3 23 2 38 19 58 23 26 24 26 43 9 17 -16 35 -72 33 -104 0 -5 6 -17
13 -28 6 -11 18 -39 24 -61 7 -23 19 -47 27 -54 8 -7 15 -22 15 -34 0 -13 11
-33 25 -46 14 -13 23 -30 21 -37 -6 -15 216 -239 264 -267 l33 -19 -6 29 c-11
62 -59 218 -74 241 -16 24 -23 48 -49 188 -13 63 -14 90 -5 125 6 25 11 59 12
75 1 39 -17 151 -27 167 -4 6 -7 54 -6 104 1 54 -2 95 -8 99 -5 3 -10 21 -10
40 0 38 -25 141 -38 159 -12 15 -123 289 -121 299 0 1 -5 16 -12 32 -6 17 -15
50 -19 75 -10 59 -14 75 -38 140 -23 65 -37 115 -53 190 -6 30 -18 69 -25 87
-8 17 -14 37 -14 45 0 7 -9 33 -20 57 -11 24 -22 53 -24 66 -2 12 -9 31 -14
41 -27 50 -53 107 -55 122 -2 9 -12 49 -24 87 -12 39 -29 99 -39 135 -19 72
-82 240 -95 255 -5 5 -9 19 -9 31 0 12 -11 36 -25 52 -14 17 -25 33 -25 36 0
3 -21 38 -47 77 -27 40 -54 83 -61 95 -7 13 -23 29 -35 35 -44 24 -137 101
-242 201 -60 57 -110 102 -112 100 -6 -4 -72 60 -70 68 1 5 -16 28 -38 52 -63
69 -76 85 -79 100 -1 7 -16 37 -34 66 -17 29 -32 56 -32 61 0 4 -10 16 -21 27
-12 10 -30 38 -41 61 -10 23 -31 55 -46 71 -88 94 -134 154 -130 169 8 29 -75
129 -130 156 -26 13 -65 33 -87 44 -22 12 -58 29 -80 38 -22 10 -51 28 -65 40
-22 20 -82 43 -87 33 -1 -2 -13 8 -26 21 -14 12 -30 21 -35 17 -5 -3 -32 4
-61 14 -28 11 -71 21 -94 22 -23 0 -53 5 -67 11 -49 20 -110 29 -280 43 -47 4
-91 11 -98 17 -7 6 -34 7 -65 3 -28 -4 -83 -8 -122 -10 -109 -5 -166 -17 -345
-71 -58 -18 -162 -66 -188 -87 -8 -7 -16 -11 -16 -8 -1 2 -36 -15 -78 -38 -88
-49 -113 -52 -263 -34 -176 21 -320 21 -425 2 -92 -18 -157 -37 -149 -44 11
-11 179 -96 179 -91 0 3 21 -6 48 -21 63 -36 175 -82 242 -100 30 -8 64 -23
75 -33 11 -11 43 -30 70 -44 44 -23 135 -112 135 -134 0 -4 13 -33 29 -64 32
-59 32 -63 31 -286 l0 -112 -68 -69 c-37 -39 -82 -95 -101 -126 -28 -47 -104
-242 -116 -296 -1 -8 -8 -33 -14 -55 -16 -62 -31 -267 -27 -392 3 -134 -16
-289 -44 -343 -28 -56 -50 -145 -50 -208 0 -50 3 -56 51 -108 39 -40 59 -54
80 -54 48 0 70 -43 91 -179 11 -76 52 -203 80 -248 16 -27 24 -31 47 -27 22 5
34 -2 67 -34 22 -22 48 -58 58 -79 11 -21 23 -45 27 -53 5 -8 18 -33 29 -55
11 -22 41 -67 66 -100 24 -33 47 -68 51 -77 3 -10 8 -18 12 -18 4 0 24 -23 46
-51 52 -68 128 -143 195 -192 30 -22 70 -54 89 -70 19 -16 46 -34 60 -41 15
-6 53 -27 86 -47 33 -20 101 -53 150 -74 132 -54 139 -58 149 -87 7 -19 4 -36
-11 -69 -11 -24 -35 -75 -53 -114 -17 -38 -32 -72 -32 -75 0 -3 -5 -12 -12
-20 -7 -8 -23 -37 -36 -63 -13 -26 -41 -64 -63 -83 -32 -30 -44 -35 -74 -31
-19 3 -44 14 -56 25 -12 11 -42 28 -67 39 -25 11 -51 27 -59 36 -7 10 -23 17
-34 17 -11 0 -31 10 -43 21 -13 12 -38 23 -56 25 -17 2 -37 9 -42 14 -6 6 -19
10 -29 10 -21 0 -43 21 -385 355 -297 291 -284 277 -387 393 -49 56 -95 102
-102 102 -6 0 -19 10 -27 23 -29 41 -171 177 -186 177 -17 0 -105 73 -105 87
0 11 -159 165 -220 213 -21 17 -52 46 -68 63 -15 17 -34 32 -41 32 -8 0 -93
79 -189 175 -186 186 -295 289 -300 284 -2 -2 -29 24 -61 57 -32 33 -83 78
-112 101 -30 22 -54 44 -54 48 0 4 -81 90 -180 191 -99 101 -234 240 -300 309
-66 69 -170 176 -231 238 -61 62 -108 116 -105 119 8 8 -82 115 -114 134 -15
10 -54 56 -86 104 -32 48 -68 95 -79 105 -84 74 -151 141 -171 173 -14 20 -31
37 -38 37 -15 0 -76 71 -76 88 0 5 -27 38 -60 73 -33 35 -60 69 -60 75 0 6 -9
15 -19 20 -51 23 -214 187 -223 223 -2 7 -27 38 -55 69 -29 31 -53 59 -53 64
0 4 -13 22 -29 40 -16 18 -39 51 -51 73 -13 22 -28 49 -35 60 -16 28 -164 175
-176 175 -5 0 -15 11 -21 25 -6 14 -16 25 -22 25 -6 0 -27 19 -48 43 l-37 42
-1 -632z m5317 -3751 c17 -9 77 -47 133 -84 55 -38 103 -68 107 -68 3 0 29
-14 57 -32 53 -33 137 -46 164 -25 10 8 24 -1 56 -32 36 -36 47 -56 75 -149
18 -59 39 -125 47 -147 22 -62 81 -264 97 -330 8 -33 22 -85 30 -115 8 -30 25
-102 37 -160 12 -58 33 -140 46 -183 13 -43 24 -85 24 -94 0 -9 -16 -35 -35
-58 l-35 -43 -40 14 c-23 8 -57 12 -78 8 -35 -5 -40 -2 -107 65 -38 39 -73 71
-78 71 -5 0 -55 43 -112 95 -57 52 -110 95 -118 95 -7 0 -28 16 -47 35 -19 19
-38 35 -43 35 -12 0 -132 107 -235 210 -91 91 -102 113 -102 200 0 85 -21 223
-37 241 -10 12 -12 29 -8 55 10 59 54 201 87 279 65 152 60 146 115 117z
m1024 -1853 c11 -11 18 -23 16 -26 -9 -9 -47 17 -47 32 0 20 6 19 31 -6z"/>
<path d="M9268 3 c7 -3 16 -2 19 1 4 3 -2 6 -13 5 -11 0 -14 -3 -6 -6z"/>
</g>
</svg>
